<svg xmlns="http://www.w3.org/2000/svg" viewBox="0 0 512 512" width="512" height="512" role="img" aria-label="Waypoint" fill="currentColor">
  <path d="M256 474 C201 410 138 362 138 284 A118 118 0 0 1 374 284 C374 362 311 410 256 474 Z"/>
  <path d="M247 302 L265 302 L259 128 L253 128 Z"/>
  <circle cx="256" cy="110" r="16"/>
  <g fill="none" stroke="currentColor" stroke-width="13" stroke-linecap="round">
    <path d="M216 80 Q188 110 216 140"/>
    <path d="M196 60 Q156 110 196 160"/>
    <path d="M296 80 Q324 110 296 140"/>
    <path d="M316 60 Q356 110 316 160"/>
  </g>
  <circle cx="256" cy="288" r="46" fill="#0b0d12"/>
</svg>
