<svg xmlns="http://www.w3.org/2000/svg" viewBox="0 0 512 512" width="512" height="512" role="img" aria-label="Waypoint">
  <defs>
    <linearGradient id="wpg" x1="0" y1="0" x2="0" y2="1">
      <stop offset="0" stop-color="#2ee9d4"/>
      <stop offset="0.45" stop-color="#33c0e8"/>
      <stop offset="1" stop-color="#3a79e2"/>
    </linearGradient>
    <linearGradient id="wpd" x1="0" y1="0" x2="0" y2="1">
      <stop offset="0" stop-color="#ffffff"/>
      <stop offset="1" stop-color="#dbe8f6"/>
    </linearGradient>
  </defs>
  <path fill="url(#wpg)" d="M256 474 C201 410 138 362 138 284 A118 118 0 0 1 374 284 C374 362 311 410 256 474 Z"/>
  <path fill="url(#wpg)" d="M247 302 L265 302 L259 128 L253 128 Z"/>
  <circle cx="256" cy="110" r="16" fill="url(#wpg)"/>
  <g fill="none" stroke="url(#wpg)" stroke-width="13" stroke-linecap="round">
    <path d="M216 80 Q188 110 216 140"/>
    <path d="M196 60 Q156 110 196 160"/>
    <path d="M296 80 Q324 110 296 140"/>
    <path d="M316 60 Q356 110 316 160"/>
  </g>
  <circle cx="256" cy="288" r="46" fill="url(#wpd)"/>
</svg>
